<?xml version="1.0" standalone="no"?>
<!DOCTYPE svg PUBLIC "-//W3C//DTD SVG 20010904//EN"
 "http://www.w3.org/TR/2001/REC-SVG-20010904/DTD/svg10.dtd">
<svg version="1.0" xmlns="http://www.w3.org/2000/svg"
 width="512.000000pt" height="512.000000pt" viewBox="0 0 512.000000 512.000000"
 preserveAspectRatio="xMidYMid meet">

<g transform="translate(0.000000,512.000000) scale(0.100000,-0.100000)"
fill="#000000" stroke="none">
<path d="M2365 4893 c-707 -61 -1348 -442 -1747 -1037 -371 -554 -485 -1237
-317 -1893 40 -156 88 -284 169 -448 347 -703 1013 -1176 1810 -1286 140 -20
468 -17 615 5 666 99 1254 469 1623 1021 83 125 207 368 254 501 255 714 155
1505 -270 2124 -442 644 -1173 1027 -1947 1018 -82 -1 -168 -3 -190 -5z m768
-1067 c18 -8 123 -104 234 -213 239 -235 226 -208 221 -478 l-3 -170 -107 -3
-108 -3 0 131 0 130 -170 0 -170 0 -32 29 -33 29 -3 171 -3 171 -555 0 -554 0
0 -330 0 -331 -107 3 -108 3 -3 335 c-1 207 2 354 8 384 13 63 51 113 104 137
39 18 78 19 699 19 549 0 663 -2 690 -14z m-1332 -1112 c62 -18 145 -71 176
-112 145 -196 82 -452 -137 -556 -64 -30 -66 -31 -212 -28 l-146 2 -4 -125
c-3 -118 -4 -126 -28 -150 -52 -52 -132 -48 -174 8 -20 28 -21 40 -24 450 -3
473 -3 474 68 509 49 25 398 26 481 2z m944 1 c192 -41 341 -182 390 -370 65
-252 -85 -525 -335 -607 -55 -18 -96 -22 -264 -26 -223 -5 -263 2 -295 47 -20
28 -21 42 -21 458 0 407 1 430 20 460 12 20 32 36 52 42 55 15 373 13 453 -4z
m1320 0 c75 -36 78 -142 5 -180 -23 -12 -74 -15 -265 -15 l-235 0 0 -105 0
-105 211 0 211 0 34 -34 c39 -39 45 -85 18 -125 -31 -44 -69 -51 -279 -51
l-195 0 0 -160 0 -160 -27 -30 c-52 -57 -133 -56 -177 3 -21 28 -21 38 -21
461 0 401 1 434 18 460 34 52 56 55 375 56 245 0 299 -3 327 -15z m-480 -1267
c-13 -74 -45 -118 -112 -152 -29 -14 -117 -16 -863 -16 -810 0 -832 1 -870 20
-50 25 -86 73 -99 130 -6 25 -11 48 -11 53 0 4 441 7 981 7 l981 0 -7 -42z"/>
<path d="M1480 2370 l0 -150 123 0 c114 0 125 2 159 25 46 31 73 97 63 152
-17 94 -70 122 -232 123 l-113 0 0 -150z"/>
<path d="M2440 2221 l0 -301 128 0 c124 0 131 1 191 31 105 53 157 146 155
279 -2 111 -62 211 -159 263 -34 18 -61 22 -177 25 l-138 4 0 -301z"/>
</g>
</svg>
